<?xml version="1.0" encoding="UTF-8"?>
<svg id="Layer_2" data-name="Layer 2" xmlns="http://www.w3.org/2000/svg" viewBox="0 0 470.61 80.78">
  <defs>
    <style>
      .cls-1 {
        fill: #fff;
      }
    </style>
  </defs>
  <g id="Layer_1-2" data-name="Layer 1">
    <g>
      <g>
        <path class="cls-1" d="M91.93,50.6l-4.27,6.3v23.17h-20.83V0h20.83v32.14L107.3,0h24.99l-25.84,35.12,27.75,44.95h-26.05l-16.22-29.47Z"/>
        <path class="cls-1" d="M282.82,30.46c-11.67,0-15.87,10.03-15.87,22.92s4.2,22.92,15.87,22.92c4.06,0,9.04-.36,11.53-1.57v-18.22h-11.18v-4.48h16.02v25.84c-3.63,1.71-8.9,2.92-16.37,2.92-15.94,0-20.99-12.24-20.99-27.4s5.05-27.4,20.99-27.4v4.48Z"/>
        <path class="cls-1" d="M311.04,80.07h-4.84V26.69h16.73c13.31,0,17.43,5.84,17.43,15.02,0,7.12-2.49,12.24-9.82,14.16l12.74,24.2h-5.63l-11.96-23.42c-.78.07-1.57.07-2.34.07h-12.32v23.35ZM311.04,52.24h13.17c9.47,0,10.89-4.84,10.89-10.53s-1.42-10.53-10.89-10.53h-13.17v21.07Z"/>
        <path class="cls-1" d="M345.48,53.38c0-13.95,2.5-27.4,19.93-27.4s19.93,13.45,19.93,27.4-2.49,27.4-19.93,27.4-19.93-13.45-19.93-27.4ZM380.22,53.38c0-12.81-1.92-22.92-14.81-22.92s-14.8,10.11-14.8,22.92,1.93,22.92,14.8,22.92,14.81-10.11,14.81-22.92Z"/>
        <path class="cls-1" d="M424.29,62.56V26.69h4.84v36.65c0,15.16-12.45,17.44-18.87,17.44s-18.85-2.28-18.85-17.44V26.69h4.84v35.87c0,12.81,9.25,13.74,14.02,13.74s14.03-.93,14.03-13.74Z"/>
        <path class="cls-1" d="M452.74,54.23h.65c10.04,0,11.96-6.41,11.96-11.53s-1.92-11.53-11.96-11.53h-12.1v48.9h-4.83V26.69h16.29c13.31,0,17.86,7.68,17.86,16.01s-4.55,16.02-17.86,16.02v-4.49Z"/>
        <path class="cls-1" d="M456.53,72.08v7.99h-1.38v-7.99h-2.41v-1.27h6.2v1.27h-2.41Z"/>
        <path class="cls-1" d="M465.76,78.8h-1.31l-2.31-5.69.07,6.96h-1.38v-9.26h1.78l2.51,6.31,2.51-6.31h1.78v9.26h-1.38l.06-6.96-2.31,5.69Z"/>
      </g>
      <path class="cls-1" d="M19.53,0L0,80.07h21.99l2.99-14.52h16.87l2.99,14.52h22L47.29,0h-27.76ZM28.18,49.64l5.24-30.54,5.23,30.54h-10.46Z"/>
      <path class="cls-1" d="M207.63,0l-19.53,80.07h21.99l2.99-14.52h16.87l2.99,14.52h22L235.39,0h-27.76ZM216.28,49.64l5.23-30.54,5.23,30.54h-10.46Z"/>
      <polygon class="cls-1" points="177.03 80.07 198.48 0 175.95 0 164.74 55.09 153.54 0 131.01 0 152.47 80.07 177.03 80.07"/>
    </g>
  </g>
</svg>